# xmcd
#
# Track frame offsets:
#	150
#	17480
#	31382
#	43863
#	58575
#	76685
#	92170
#	103634
#	114448
#	128425
#	138608
#	154984
#	171282
#	188081
#	204352
#
# Disc length: 2946 seconds
# Revision: 0
# Processed by: cddbd v1.5.2PL0 Copyright (c) Steve Scherf et al.
# Submitted via: dBpowerAMP V12.0
#
DISCID=be0b800f
DTITLE=Natasha James - Tequila Time
DYEAR=2009
DGENRE=Americana
TTITLE0=Takes Alotta Love
TTITLE1=Tequila Time
TTITLE2=Boy Do We Drink
TTITLE3=Cheetah On The Run
TTITLE4=Get Out Of My Way
TTITLE5=Straight To Hell
TTITLE6=Stuck In Atlanta
TTITLE7=If You Think This is Love
TTITLE8=I Don't Care
TTITLE9=Somebody Just Blew It
TTITLE10=Ain't Done Nothin' WRong
TTITLE11=Fillin' Station
TTITLE12=Let Me Cry
TTITLE13=The Wind
TTITLE14=Modern Life
EXTD=
EXTT0=
EXTT1=
EXTT2=
EXTT3=
EXTT4=
EXTT5=
EXTT6=
EXTT7=
EXTT8=
EXTT9=
EXTT10=
EXTT11=
EXTT12=
EXTT13=
EXTT14=
PLAYORDER=
